# xmcd CD database file
#
# Track frame offsets:
#	150
#	14334
#	31558
#	49919
#	70172
#	107023
#
# Disc length: 1615 seconds
#
# Revision: 0
# Processed by: cddbd v1.5.2PL0 Copyright (c) Steve Scherf et al.
# Submitted via: CDex 1.51
#
DISCID=42064d06
DTITLE=Blond and Blues - Blond and Blues
DYEAR=2003
DGENRE=Blues
TTITLE0=Further On Up The Road
TTITLE1=Pride and Joy
TTITLE2=Women is Losers
TTITLE3=Leaving Trunk
TTITLE4=Texas Blues - Jelly Roll
TTITLE5=It's all over now
EXTD=YEAR: 2003
EXTT0=
EXTT1=
EXTT2=
EXTT3=
EXTT4=
EXTT5=
PLAYORDER=
